# xmcd
#
# Track frame offsets: 
#        150
#        14348
#        28025
#        40395
#        56655
#        69955
#        82912
#        95510
#
# Disc length: 1434 seconds
#
# Revision: 0
# Processed by: cddbd v1.5.2PL0 Copyright (c) Steve Scherf et al.
# Submitted via: ExactAudioCopy v0.90b4
#
DISCID=5d059808
DTITLE=Merle Haggard - Everybody Has The Blues
DYEAR=2005
DGENRE=Country
TTITLE0=Always Wanting You
TTITLE1=Cherokee Maiden
TTITLE2=Everybody Has The Blues
TTITLE3=It's All in the Movies
TTITLE4=Kentucky Gambler
TTITLE5=The Bottle Let Me Down
TTITLE6=The Roots of my Raising
TTITLE7=Things Aren't Funny Anymore
EXTD=
EXTT0=
EXTT1=
EXTT2=
EXTT3=
EXTT4=
EXTT5=
EXTT6=
EXTT7=
PLAYORDER=
